<svg xmlns="http://www.w3.org/2000/svg" viewBox="0 0 500 488.81"><defs><style>.cls-1{fill:#5490cc;}.cls-2{fill:#12b4e4;}.cls-3{fill:#fff;}.cls-4{fill:#f6eb16;}.cls-5{fill:none;stroke:#fff;stroke-miterlimit:10;stroke-width:2px;}</style></defs><title>Asset 1</title><g id="Layer_2" data-name="Layer 2"><g id="Layer_2-2" data-name="Layer 2"><path class="cls-1" d="M500,306.31v4c-.55,2.26-1.26,4.5-1.63,6.79-2.83,17.51-7.27,34.46-17.08,49.56-1.31,2-1.94,4.62-5.06,5-6.14.73-12.32,1.2-18.11-1.3-3-1.29-4.77-.71-7,1.44q-37.45,36.77-75,73.42a41.78,41.78,0,0,1-9.07,7Q348.26,462.55,329.49,473a23.06,23.06,0,0,1-6.93,2.68c-21.87,4.15-43.71,8.41-65.56,12.64H240a29.28,29.28,0,0,0-4.44-.56c-18.66.42-37.29-.87-55.94-1a55,55,0,0,1-11.37-1.24c-16.57-3.63-33.18-7-49.7-10.85-9.2-2.12-18.76-2.93-27.46-7.06-12.78-6.07-25.63-12-38.34-18.21-7.26-3.55-15-6.24-20.61-12.75C25,428.43,17.35,420.79,10,412.85c-1.68-1.81-3.21-3.68-3.37-6.47Q4.76,373,2.7,339.68A30.48,30.48,0,0,1,4.34,327.4c3.9-10.87,5.19-22.5,11.1-32.87,3.56-6.25,4.82-13.79,7.22-20.71.54-1.57.38-3.73,3.08-4.39l8.85,29.47c2.25-1.16,2.69-2.89,3.52-4.27,4.12-6.85,8.13-13.77,12.27-20.6.9-1.48,1.42-3.93,3.46-3.79,1.83.12,1.75,2.57,2.46,4,1,2.08,1.83,4.28,2.71,6.43.49,1.19.47,3,2,3.11s1.83-1.72,2.36-2.85c4-8.43,7.88-16.9,11.84-25.34.55-1.16.82-2.95,2.33-2.93s1.83,1.79,2.34,3c2.83,6.57,5.59,13.16,8.35,19.77.75,1.79,1.85,2.78,3.86,2s3.78-1.68,3.3-4.26a12,12,0,0,0-1.05-3.32c-5.61-10.78-4.89-21.65-2.4-33.3,2.32-10.88,6.21-20.12,13.24-28.87,5.76-7.18,11.13-11.19,20.27-7.78a27.39,27.39,0,0,0,4.89.86c3,.51,3.77-.45,2.3-3.2-3.61-6.75-7.2-13.51-10.71-20.32-1.29-2.51-3-2.73-5.35-1.61-5,2.36-9.94,4.68-15,6.89-1.43.63-3.11,2.28-4.53,1-1.23-1.1-.54-3.19-.27-4.8,1.37-8.37,2.84-16.73,4.3-25.08.22-1.29,1.07-2.78-.22-3.71s-2.51.35-3.65.91c-4.48,2.21-8.91,4.54-13.39,6.75-1.13.56-2.41,1.78-3.63.69s-.43-2.51-.15-3.79c1.86-8.28,3.78-16.54,5.57-24.83.4-1.87,2.16-4.42.36-5.57-2-1.3-3.63,1.5-5.32,2.62-4.69,3.12-8.65,7.36-14,9.53,5-9.91,11.49-18.77,18.23-29-3.15,1.72-4.28,1.36-3.34-1.23,3.92-10.8,7.27-22,13.23-31.75,12.84-21,28.48-39.71,48.47-54.48a25.77,25.77,0,0,1,10.67-5C168.27,12,182.81,10.05,197,6.31h1c7.88,1.23,15.75,2.54,23.65,3.67,22.52,3.21,45,5.66,66.2,15.54,22.68,10.59,47.24,17.2,66.92,33.86,7.34,6.21,15.77,11.13,23.46,16.94,4.76,3.59,10.35,6.17,14.11,11,10.84,13.91,21.61,27.88,32.46,41.78a17.78,17.78,0,0,1,3.25,6.13q9.68,34.56,19.29,69.13,10.23,36.72,20.49,73.43c.82,2.92,1.59,7.27,5.8,2.28,1.08-1.28,2.72-1,4.21-1.12,5.39-.26,10.57,1,15.75,2.25a4.42,4.42,0,0,1,3.87,4.39C498.1,292.53,499.13,299.41,500,306.31Zm-86.71-94.93c-4.63,2.48-8.11,4.32-11.56,6.21-5.85,3.19-6.31,3-6-3.73.48-11.8,1.24-23.58,1.94-35.37.24-4-1.1-4.78-4.61-2.84-9.19,5.05-18.46,10-27.72,14.9-5.37,2.85-5.52,2.68-5.67-3.52-.43-17.66,1.62-35.27,1-52.94-.21-6.54-.13-6.61-5.88-3.64-13.32,6.88-26.66,13.72-39.92,20.71-3.7,2-5.13,1.61-5.42-3-1.09-17.41-2.57-34.79-3.78-52.19-.44-6.35-.29-6.37-6.05-3.47q-24.75,12.48-49.49,25c-3.29,1.67-5.23,2.23-5.67-2.77-1.35-15.41-3.3-30.76-4.67-46.16-.38-4.25-1.41-4.3-4.7-2.37Q209,81.42,182.75,96.36c-5.69,3.24-6.54,2.6-7.07-3.87q-1.21-14.92-2.76-29.81c-.53-5-1-5.13-5.25-2-12.06,8.9-24,18-36.26,26.57-4.16,2.92-4.92,5.49-3.05,10.27,16.27,41.67,32.25,83.45,48.4,125.17,1,2.48,1.51,4.61-.08,7-1.27,1.92-.35,2.92,1.8,3.44,13.69,3.31,27.57,5.88,40.45,12.07,3.65,1.76,8.12,1.74,12.07,3,3.25,1,5.55.3,7.31-2.4a5.35,5.35,0,0,1,5.93-2.66c3.26.61,6.58,1,9.77,1.9,27.63,7.42,55.46,14,83.63,19,3.39.6,6,1.71,6.17,5.73s2.7,5.56,6.4,6.17c10.67,1.77,21,4.48,32.05,5.15,13.12.8,26,5.21,39,8,4,.85,7.5,1.94,7.21,7.14-.1,1.72,1.17,2.7,2.84,3,2.19.33,2.34-1.47,2.73-2.85,1.36-4.8,2.64-9.63,4-14.44.71-2.56,1.58-5.08.55-7.79-3.57-9.32-7.15-18.63-10.61-28-1.14-3.08-2.69-3.42-5.18-1.49-4.21,3.26-8.49,6.43-12.75,9.64-.78.58-1.52,1.58-2.59,1.11-1.43-.62-.9-2.08-.75-3.11.74-5.1,1.66-10.17,2.49-15.26C410.5,228.87,411.79,220.73,413.29,211.39ZM401.18,339.73c3.8,3.48,5.41,7.41,7.67,10.85,7.09,10.8,7,10.8,17.21,2.81,2.55-2,3.49-4,2.51-7.26-1.58-5.21-4.33-10.16-3.84-15.88a1.54,1.54,0,0,0-1.43-1.73,1.78,1.78,0,0,0-2.07,1c-2.72,5.72-7.46,4.65-12,3.29C394.55,328.4,379,327.54,365,319.52c-7.48-4.3-17.2-4.7-25.91-6.83-1.66-.41-3.54-.65-4.42,1.21-1.89,4-5.3,3.78-8.89,3.86-4,.08-7.53-1.23-11.14-2.44-9.48-3.17-19.26-5.17-28.92-7.63-4.76-1.21-5.71,2.48-7,5.29-1.54,3.23,1.72,3.22,3.45,4.13a138.83,138.83,0,0,1,15.78,10c12.06,8.6,12.71,18.46,7.71,31.06-2.28,5.74-4,11.18-9.81,14.15-3.43,1.76-3.32,3.84-1.23,6.79,7.38,10.47,14.58,21.07,21.84,31.62,3.4,4.94,3.89,5,6.55-.69,6.68-14.15,13.22-28.37,19.89-42.53,2.18-4.63,2.89-4.65,5.64-.41,4.8,7.4,9.53,14.85,14.31,22.26.69,1.07,1.11,2.77,2.73,2.53s1.63-2,2-3.16c2.82-8.36,5.53-16.76,8.36-25.12.46-1.35.56-3.29,2.33-3.54s2.13,1.81,3.11,2.84c.45.47.67,1.17,1.11,1.65,2.6,2.86,3.76,9,7.12,8.44,2.81-.51,2.89-6.81,4.14-10.56C396.22,355.07,397.84,347.41,401.18,339.73Zm-246.93-72c-2.15,2.34-2,4.58-1.84,6.7.32,3.69-.92,6.07-4.23,8.14-11.86,7.4-23.49,15.17-35.21,22.78Q77.77,328.2,42.57,351c-3.1,2-4.62,4.44-3.34,8.36,1.55,4.73,2.8,9.58,3.91,14.44.82,3.56,2,3.86,4.36,1.14q11-12.63,22-25.17c4.42-5,4.45-5,7.16,1.4,7.22,17.18,14.49,34.33,21.6,51.56,1.49,3.62,2.8,4.08,5.31.9,5.35-6.8,10.84-13.5,16.26-20.24,1.85-2.3,1.52-3.87-1.49-4.69-3.37-.92-6.72-1.91-10.06-2.92-13-3.94-18.39-12.93-15.56-25.85a6.16,6.16,0,0,0,.21-1c.53-10.47,5.72-17.63,14.64-23.11,8.72-5.35,15.94-13,26.52-15.4,6.31-1.42,12.35-4,18.56-5.9,4.75-1.46,9.4-3.11,14.45-3.75,9.29-1.18,18.66-.15,27.91-1.49a31.17,31.17,0,0,1,15.29,1.34c7,2.57,14.44,2.06,21.67,3,3.69.48,4.65-3.13,5.35-5.59.81-2.84-2.19-2.11-3.76-2.5-2.28-.56-4.14-1.58-4.18-4.2-.09-5.65-4-6.62-8.46-7.81-9.51-2.55-19.15-3.46-28.92-4.46-10.48-1.07-20.67-4.83-31-7.28C158.36,271.19,156,270.32,154.25,267.75ZM287,379.62a4.07,4.07,0,0,0-3.42,1.41c-7.29,6.42-15.81,10.11-25.24,12.17-7,1.53-13.76,3.72-20.69,5.4-3.68.89-4.31,2.33-2.12,5.48,4.83,7,9.62,14,14.1,21.13,2.41,3.86,3.92,3.51,6.3,0,8.24-12.08,16.71-24,25-36.06C283,386.13,285.78,383.43,287,379.62ZM153.13,389.4c-.12.66-.34,1.07-.21,1.28q10.05,16,20.16,32.05c1.5,2.39,2.81,1.74,4.16-.13,4.48-6.2,8.92-12.43,13.5-18.55,2.09-2.79,1.32-3.86-1.83-4.71-7.85-2.11-15.62-4.54-23.44-6.79C161.39,391.38,157.45,389.6,153.13,389.4Z"/><line class="cls-2" x1="250" y1="428.17" x2="211.61" y2="370.15"/><rect class="cls-3" x="229.3" y="364.37" width="3" height="69.57" transform="matrix(0.83, -0.55, 0.55, 0.83, -181.94, 193.63)"/><line class="cls-2" x1="173.27" y1="425.16" x2="212.36" y2="371.29"/><rect class="cls-3" x="159.54" y="396.72" width="66.56" height="3" transform="translate(-242.73 320.4) rotate(-54.03)"/><line class="cls-2" x1="134.84" y1="364.2" x2="173.93" y2="426.45"/><rect class="cls-3" x="152.89" y="358.58" width="3" height="73.5" transform="translate(-186.6 142.64) rotate(-32.13)"/><line class="cls-2" x1="99" y1="407.62" x2="134.84" y2="364.2"/><rect class="cls-3" x="88.77" y="384.41" width="56.3" height="3" transform="matrix(0.64, -0.77, 0.77, 0.64, -255.11, 230.36)"/><line class="cls-2" x1="72.64" y1="345.12" x2="99" y2="407.62"/><rect class="cls-3" x="84.32" y="342.45" width="3" height="67.83" transform="translate(-139.51 62.92) rotate(-22.87)"/><line class="cls-2" x1="43.33" y1="376.37" x2="72.64" y2="345.12"/><rect class="cls-3" x="36.56" y="359.24" width="42.84" height="3" transform="translate(-244.8 156.24) rotate(-46.83)"/><line class="cls-2" x1="28.67" y1="320.86" x2="43.33" y2="376.37"/><rect class="cls-3" x="34.5" y="319.91" width="3" height="57.41" transform="translate(-87.8 20.74) rotate(-14.79)"/><line class="cls-2" x1="11.49" y1="344.11" x2="28.67" y2="320.86"/><rect class="cls-3" x="5.63" y="330.98" width="28.91" height="3" transform="matrix(0.59, -0.8, 0.8, 0.59, -259.21, 150.98)"/><line class="cls-2" x1="23.11" y1="272.85" x2="11.49" y2="344.11"/><rect class="cls-3" x="-18.8" y="306.98" width="72.2" height="3" transform="translate(-289.95 275.95) rotate(-80.75)"/><line class="cls-2" x1="11.49" y1="297.11" x2="23.11" y2="272.85"/><rect class="cls-3" x="3.85" y="283.48" width="26.9" height="3" transform="translate(-247.15 177.38) rotate(-64.39)"/><line class="cls-2" x1="1.5" y1="334.12" x2="11.49" y2="297.11"/><rect class="cls-3" x="-12.68" y="314.11" width="38.34" height="3" transform="translate(-299.92 239.69) rotate(-74.91)"/><line class="cls-2" x1="32.82" y1="299.43" x2="23.11" y2="272.85"/><rect class="cls-3" x="26.47" y="271.99" width="3" height="28.3" transform="translate(-96.48 26.97) rotate(-20.07)"/><line class="cls-2" x1="51.82" y1="269.88" x2="32.82" y2="299.43"/><rect class="cls-3" x="24.75" y="283.15" width="35.13" height="3" transform="translate(-219.98 166.26) rotate(-57.25)"/><line class="cls-2" x1="59.73" y1="284.65" x2="75.83" y2="251.41"/><rect class="cls-3" x="49.31" y="266.53" width="36.94" height="3" transform="translate(-203.01 212.29) rotate(-64.18)"/><line class="cls-2" x1="87.97" y1="278.32" x2="107.75" y2="268.03"/><rect class="cls-3" x="86.71" y="271.68" width="22.3" height="3" transform="translate(-114.96 75.93) rotate(-27.47)"/><line class="cls-2" x1="59.73" y1="284.65" x2="51.82" y2="269.88"/><rect class="cls-3" x="54.28" y="268.88" width="3" height="16.76" transform="translate(-124.32 59.2) rotate(-28.18)"/><line class="cls-2" x1="87.97" y1="278.32" x2="75.83" y2="251.41"/><rect class="cls-3" x="80.4" y="250.1" width="3" height="29.52" transform="translate(-101.64 57.08) rotate(-24.27)"/><line class="cls-2" x1="38.63" y1="351.14" x2="151.03" y2="278.85"/><rect class="cls-3" x="28" y="313.5" width="133.64" height="3" transform="matrix(0.84, -0.54, 0.54, 0.84, -155.33, 101.36)"/><line class="cls-2" x1="428.21" y1="348.61" x2="413.79" y2="360.74"/><rect class="cls-3" x="411.58" y="353.18" width="18.84" height="3" transform="translate(-129.49 354.2) rotate(-40.06)"/><line class="cls-2" x1="364.65" y1="393.15" x2="376.48" y2="359.83"/><rect class="cls-3" x="352.89" y="374.99" width="35.36" height="3" transform="translate(-108.24 599.66) rotate(-70.44)"/><line class="cls-2" x1="388.31" y1="373.59" x2="399.66" y2="338.1"/><rect class="cls-3" x="375.36" y="354.34" width="37.26" height="3" transform="translate(-64.98 622.68) rotate(-72.26)"/><line class="cls-2" x1="413.79" y1="360.74" x2="399.66" y2="338.1"/><rect class="cls-3" x="405.23" y="336.07" width="3" height="26.69" transform="translate(-123.3 268.24) rotate(-31.96)"/><line class="cls-2" x1="388.31" y1="373.59" x2="376.48" y2="359.83"/><rect class="cls-3" x="380.9" y="357.63" width="3" height="18.15" transform="translate(-146.63 337.9) rotate(-40.68)"/><line class="cls-2" x1="364.65" y1="393.15" x2="343.41" y2="362.97"/><rect class="cls-3" x="352.53" y="359.6" width="3" height="36.91" transform="translate(-153.09 272.73) rotate(-35.15)"/><line class="cls-2" x1="318.54" y1="414.88" x2="287.88" y2="374.99"/><rect class="cls-3" x="301.71" y="369.78" width="3" height="50.31" transform="translate(-177.88 266.64) rotate(-37.55)"/><line class="cls-2" x1="343.41" y1="362.97" x2="318.54" y2="414.88"/><rect class="cls-3" x="302.19" y="387.42" width="57.56" height="3" transform="translate(-162.81 519.23) rotate(-64.39)"/><line class="cls-2" x1="428.21" y1="348.61" x2="441.91" y2="293.91"/><rect class="cls-3" x="406.87" y="319.76" width="56.39" height="3" transform="translate(17.76 665.29) rotate(-75.95)"/><line class="cls-2" x1="460.26" y1="280.63" x2="441.91" y2="293.91"/><rect class="cls-3" x="439.76" y="285.77" width="22.65" height="3" transform="translate(-82.75 319.22) rotate(-35.91)"/><line class="cls-2" x1="470.16" y1="281.6" x2="460.26" y2="280.63"/><rect class="cls-3" x="463.71" y="276.14" width="3" height="9.95" transform="translate(140.25 716.84) rotate(-84.43)"/><line class="cls-2" x1="452.78" y1="365.62" x2="369.2" y2="447.82"/><rect class="cls-3" x="352.38" y="405.22" width="117.22" height="3" transform="translate(-167.22 404.95) rotate(-44.53)"/><line class="cls-2" x1="473.3" y1="278.94" x2="459.06" y2="302.85"/><rect class="cls-3" x="452.27" y="289.4" width="27.83" height="3" transform="translate(-22.35 542.45) rotate(-59.21)"/><line class="cls-2" x1="452.3" y1="334.72" x2="459.06" y2="302.85"/><rect class="cls-3" x="439.39" y="317.28" width="32.58" height="3" transform="translate(49.23 698.34) rotate(-78.02)"/><line class="cls-2" x1="451.09" y1="355.84" x2="452.3" y2="334.72"/><rect class="cls-3" x="441.11" y="343.78" width="21.16" height="3" transform="translate(81.09 776.44) rotate(-86.71)"/><line class="cls-2" x1="455.68" y1="368.52" x2="451.69" y2="362.48"/><rect class="cls-3" x="452.18" y="361.88" width="3" height="7.23" transform="translate(-126.3 310.39) rotate(-33.43)"/><line class="cls-2" x1="451.09" y1="355.84" x2="451.69" y2="362.48"/><rect class="cls-3" x="449.89" y="355.83" width="3" height="6.67" transform="translate(-30.66 42.34) rotate(-5.19)"/><line class="cls-2" x1="455.68" y1="368.52" x2="466.18" y2="369.97"/><rect class="cls-3" x="459.43" y="363.94" width="3" height="10.6" transform="translate(32.15 775.37) rotate(-82.14)"/><line class="cls-2" x1="476.2" y1="369.24" x2="466.18" y2="369.97"/><rect class="cls-3" x="466.17" y="368.11" width="10.05" height="3" transform="translate(-25.48 35.02) rotate(-4.14)"/><line class="cls-2" x1="489.72" y1="345.28" x2="476.2" y2="369.24"/><rect class="cls-3" x="469.2" y="355.76" width="27.51" height="3" transform="translate(-65.53 602.31) rotate(-60.57)"/><line class="cls-2" x1="498.5" y1="307.43" x2="489.72" y2="345.28"/><rect class="cls-3" x="474.68" y="324.86" width="38.85" height="3" transform="translate(64.55 733.95) rotate(-76.94)"/><line class="cls-2" x1="495.27" y1="281.12" x2="498.5" y2="307.43"/><rect class="cls-3" x="495.38" y="281.02" width="3" height="26.51" transform="translate(-32.1 62.61) rotate(-6.99)"/><line class="cls-2" x1="473.3" y1="278.94" x2="495.27" y2="281.12"/><rect class="cls-3" x="482.79" y="268.99" width="3" height="22.08" transform="translate(157.95 734.41) rotate(-84.35)"/><line class="cls-2" x1="465.21" y1="273.18" x2="424.41" y2="131.5"/><rect class="cls-3" x="443.31" y="128.62" width="3" height="147.43" transform="translate(-38.63 131.02) rotate(-16.07)"/><line class="cls-2" x1="387.09" y1="83.25" x2="424.41" y2="131.5"/><rect class="cls-3" x="404.25" y="76.88" width="3" height="61" transform="translate(19.09 270.65) rotate(-37.72)"/><line class="cls-2" x1="330.97" y1="47.87" x2="387.09" y2="83.25"/><rect class="cls-3" x="357.53" y="32.39" width="3" height="66.34" transform="translate(112.08 334.29) rotate(-57.77)"/><line class="cls-2" x1="265.49" y1="18.27" x2="330.97" y2="47.87"/><rect class="cls-3" x="296.73" y="-2.86" width="3" height="71.86" transform="translate(145.27 291.21) rotate(-65.68)"/><line class="cls-2" x1="192.82" y1="8.62" x2="265.49" y2="18.27"/><rect class="cls-3" x="227.66" y="-23.21" width="3" height="73.31" transform="translate(185.66 238.84) rotate(-82.44)"/><line class="cls-2" x1="146.47" y1="13.45" x2="192.82" y2="8.62"/><rect class="cls-3" x="146.35" y="9.53" width="46.6" height="3" transform="translate(-0.23 17.62) rotate(-5.94)"/><line class="cls-2" x1="94.83" y1="71.03" x2="116.92" y2="38.21"/><rect class="cls-3" x="86.09" y="53.12" width="39.56" height="3" transform="translate(1.43 111.92) rotate(-56.04)"/><line class="cls-2" x1="146.47" y1="13.45" x2="116.92" y2="38.21"/><rect class="cls-3" x="112.41" y="24.33" width="38.56" height="3" transform="translate(14.17 90.63) rotate(-39.97)"/><line class="cls-2" x1="67.78" y1="130.86" x2="94.83" y2="71.03"/><rect class="cls-3" x="48.47" y="99.44" width="65.66" height="3" transform="translate(-44.17 133.46) rotate(-65.68)"/><line class="cls-2" x1="81.3" y1="157.88" x2="85.82" y2="122.5"/><rect class="cls-3" x="65.72" y="138.69" width="35.67" height="3" transform="translate(-66.08 205.32) rotate(-82.72)"/><line class="cls-2" x1="94.83" y1="179.11" x2="97.86" y2="146.3"/><rect class="cls-3" x="79.87" y="161.21" width="32.95" height="3" transform="translate(-74.55 243.65) rotate(-84.71)"/><line class="cls-2" x1="116.92" y1="171.39" x2="136.18" y2="202.34"/><rect class="cls-3" x="125.05" y="168.64" width="3" height="36.45" transform="translate(-79.63 95.08) rotate(-31.89)"/><line class="cls-2" x1="94.83" y1="179.11" x2="116.92" y2="171.39"/><rect class="cls-3" x="94.17" y="173.75" width="23.4" height="3" transform="translate(-51.87 44.72) rotate(-19.25)"/><line class="cls-2" x1="81.3" y1="157.88" x2="97.86" y2="146.3"/><rect class="cls-3" x="79.48" y="150.59" width="20.21" height="3" transform="translate(-71.01 78.83) rotate(-34.98)"/><line class="cls-2" x1="67.78" y1="130.86" x2="85.82" y2="122.5"/><rect class="cls-3" x="66.86" y="125.18" width="19.88" height="3" transform="translate(-46.16 44.05) rotate(-24.87)"/><line class="cls-2" x1="126.55" y1="92.26" x2="176.71" y2="224.79"/><rect class="cls-3" x="150.13" y="87.67" width="3" height="141.71" transform="translate(-46.3 63.94) rotate(-20.73)"/><line class="cls-2" x1="111.73" y1="197.77" x2="136.18" y2="202.34"/><rect class="cls-3" x="122.45" y="187.62" width="3" height="24.87" transform="translate(-95.47 285.15) rotate(-79.42)"/><line class="cls-2" x1="94.83" y1="217.72" x2="111.73" y2="197.77"/><rect class="cls-3" x="90.21" y="206.24" width="26.14" height="3" transform="translate(-121.99 152.25) rotate(-49.73)"/><line class="cls-2" x1="89.58" y1="249.88" x2="94.83" y2="217.72"/><rect class="cls-3" x="75.91" y="232.3" width="32.59" height="3" transform="translate(-153.38 287.21) rotate(-80.75)"/><line class="cls-2" x1="96.34" y1="273.18" x2="89.58" y2="249.88"/><rect class="cls-3" x="91.46" y="249.4" width="3" height="24.25" transform="translate(-69.22 36.29) rotate(-16.19)"/><line class="cls-2" x1="136.18" y1="202.34" x2="123.95" y2="213.86"/><rect class="cls-3" x="121.67" y="206.6" width="16.79" height="3" transform="translate(-107.29 145.79) rotate(-43.29)"/><line class="cls-2" x1="107.75" y1="268.03" x2="123.95" y2="213.86"/><rect class="cls-3" x="87.58" y="239.44" width="56.54" height="3" transform="translate(-148.18 282.92) rotate(-73.35)"/><line class="cls-2" x1="139.71" y1="284.65" x2="123.95" y2="259.02"/><rect class="cls-3" x="130.33" y="256.79" width="3" height="30.09" transform="translate(-122.86 109.33) rotate(-31.59)"/><line class="cls-2" x1="138.75" y1="203.97" x2="123.95" y2="259.02"/><rect class="cls-3" x="102.85" y="230" width="57.01" height="3" transform="matrix(0.26, -0.97, 0.97, 0.26, -126.32, 298.22)"/><line class="cls-2" x1="152.84" y1="264.86" x2="149.64" y2="268.03"/><rect class="cls-3" x="148.99" y="264.95" width="4.5" height="3" transform="translate(-143.66 183.35) rotate(-44.68)"/><line class="cls-2" x1="151.03" y1="278.85" x2="149.64" y2="268.03"/><rect class="cls-3" x="148.83" y="267.99" width="3" height="10.91" transform="translate(-33.64 21.4) rotate(-7.33)"/><line class="cls-2" x1="173" y1="231.5" x2="176.71" y2="224.79"/><rect class="cls-3" x="171.02" y="226.64" width="7.66" height="3" transform="translate(-109.42 270.71) rotate(-61.05)"/><line class="cls-2" x1="115.85" y1="93.92" x2="119.27" y2="54.62"/><rect class="cls-3" x="97.84" y="72.77" width="39.45" height="3" transform="translate(33.39 184.96) rotate(-85.03)"/><line class="cls-2" x1="81.9" y1="107.38" x2="119.27" y2="54.62"/><rect class="cls-3" x="68.26" y="79.5" width="64.65" height="3" transform="translate(-23.65 116.25) rotate(-54.69)"/><line class="cls-2" x1="169.64" y1="45.4" x2="115.85" y2="93.92"/><rect class="cls-3" x="106.53" y="68.16" width="72.44" height="3" transform="translate(-9.9 113.57) rotate(-42.06)"/><line class="cls-2" x1="236.54" y1="56.72" x2="174.85" y2="97.16"/><rect class="cls-3" x="168.82" y="75.44" width="73.76" height="3" transform="translate(-8.51 125.36) rotate(-33.25)"/><line class="cls-2" x1="305.28" y1="85.03" x2="244.22" y2="117.78"/><rect class="cls-3" x="240.11" y="99.9" width="69.29" height="3" transform="translate(-15.3 141.91) rotate(-28.21)"/><line class="cls-2" x1="310.54" y1="152.09" x2="366.34" y2="123.04"/><rect class="cls-3" x="306.99" y="136.07" width="62.91" height="3" transform="translate(-25.29 171.76) rotate(-27.49)"/><line class="cls-2" x1="359.03" y1="190.97" x2="403.95" y2="169.14"/><rect class="cls-3" x="356.52" y="178.56" width="49.95" height="3" transform="translate(-40.33 185.01) rotate(-25.94)"/><line class="cls-2" x1="393.99" y1="217.26" x2="403.95" y2="169.14"/><rect class="cls-3" x="374.4" y="191.7" width="49.14" height="3" transform="translate(128.87 544.69) rotate(-78.3)"/><line class="cls-2" x1="359.03" y1="190.97" x2="366.34" y2="123.04"/><rect class="cls-3" x="328.52" y="155.51" width="68.33" height="3" transform="translate(167.74 500.79) rotate(-83.85)"/><line class="cls-2" x1="310.54" y1="152.09" x2="305.28" y2="85.03"/><rect class="cls-3" x="306.41" y="84.92" width="3" height="67.27" transform="translate(-8.32 24.42) rotate(-4.48)"/><line class="cls-2" x1="244.22" y1="117.78" x2="236.54" y2="56.72"/><rect class="cls-3" x="238.88" y="56.48" width="3" height="61.54" transform="translate(-9.01 30.69) rotate(-7.17)"/><line class="cls-2" x1="174.85" y1="97.16" x2="169.64" y2="45.4"/><rect class="cls-3" x="170.75" y="45.27" width="3" height="52.02" transform="translate(-6.27 17.61) rotate(-5.75)"/><line class="cls-2" x1="406.73" y1="254.15" x2="421" y2="208.1"/><rect class="cls-3" x="389.76" y="229.62" width="48.21" height="3" transform="translate(70.51 557.94) rotate(-72.77)"/><line class="cls-2" x1="393.99" y1="217.26" x2="421" y2="208.1"/><rect class="cls-3" x="393.23" y="211.18" width="28.52" height="3" transform="translate(-46.71 142.07) rotate(-18.72)"/><line class="cls-2" x1="406.73" y1="254.15" x2="431.07" y2="240.94"/><rect class="cls-3" x="405.05" y="246.05" width="27.7" height="3" transform="translate(-67.35 229.6) rotate(-28.47)"/><line class="cls-2" x1="440.77" y1="275.55" x2="423.91" y2="330.67"/><rect class="cls-3" x="403.52" y="301.61" width="57.64" height="3" transform="translate(16.1 627.97) rotate(-73)"/><line class="cls-2" x1="428.21" y1="348.61" x2="423.91" y2="330.67"/><rect class="cls-3" x="424.56" y="330.41" width="3" height="18.46" transform="translate(-67.4 108.61) rotate(-13.47)"/><line class="cls-2" x1="440.77" y1="275.55" x2="431.07" y2="240.94"/><rect class="cls-3" x="434.42" y="240.28" width="3" height="35.94" transform="translate(-53.53 127.26) rotate(-15.66)"/><line class="cls-2" x1="470.16" y1="281.6" x2="465.21" y2="273.18"/><rect class="cls-3" x="466.19" y="272.5" width="3" height="9.77" transform="translate(-76.07 275.11) rotate(-30.43)"/><line class="cls-2" x1="138.75" y1="203.97" x2="136.18" y2="202.34"/><rect class="cls-3" x="135.96" y="201.63" width="3" height="3.05" transform="matrix(0.53, -0.84, 0.84, 0.53, -107.71, 210.66)"/><line class="cls-2" x1="166.02" y1="231.12" x2="206.74" y2="238.68"/><rect class="cls-3" x="184.88" y="214.2" width="3" height="41.42" transform="translate(-78.6 375.27) rotate(-79.48)"/><line class="cls-2" x1="154.39" y1="238.23" x2="166.02" y2="231.12"/><rect class="cls-3" x="153.39" y="233.18" width="13.63" height="3" transform="translate(-98.82 117.87) rotate(-31.41)"/><line class="cls-2" x1="152.84" y1="264.86" x2="150.33" y2="258.25"/><rect class="cls-3" x="150.08" y="258.02" width="3" height="7.08" transform="translate(-82.78 70.61) rotate(-20.73)"/><line class="cls-2" x1="154.39" y1="238.23" x2="150.33" y2="258.25"/><rect class="cls-3" x="142.15" y="246.74" width="20.43" height="3" transform="translate(-121.19 348.27) rotate(-78.55)"/><line class="cls-2" x1="152.84" y1="264.86" x2="152.84" y2="264.86"/><path class="cls-3" d="M152.84,264.86"/><line class="cls-2" x1="190.27" y1="280.03" x2="152.84" y2="264.86"/><rect class="cls-3" x="170.05" y="252.25" width="3" height="40.39" transform="translate(-145.37 329.15) rotate(-67.95)"/><line class="cls-2" x1="201.25" y1="277.27" x2="190.27" y2="280.03"/><rect class="cls-3" x="190.1" y="277.15" width="11.32" height="3" transform="translate(-62.12 56.25) rotate(-14.14)"/><line class="cls-2" x1="226.87" y1="284.65" x2="201.25" y2="277.27"/><rect class="cls-3" x="212.56" y="267.63" width="3" height="26.67" transform="translate(-115.2 408.8) rotate(-73.92)"/><line class="cls-2" x1="232.82" y1="248.24" x2="207.2" y2="243.72"/><rect class="cls-3" x="218.51" y="232.97" width="3" height="26.02" transform="translate(-60.45 419.91) rotate(-80)"/><line class="cls-2" x1="206.74" y1="238.68" x2="207.2" y2="243.72"/><rect class="cls-3" x="205.47" y="238.67" width="3" height="5.05" transform="translate(-20.99 19.73) rotate(-5.19)"/><line class="cls-2" x1="239.26" y1="243.28" x2="232.82" y2="248.24"/><rect class="cls-3" x="231.98" y="244.26" width="8.13" height="3" transform="translate(-100.93 195.15) rotate(-37.61)"/><line class="cls-2" x1="340.95" y1="264.86" x2="239.26" y2="243.28"/><rect class="cls-3" x="288.61" y="202.09" width="3" height="103.96" transform="translate(-18.67 485.09) rotate(-78.01)"/><line class="cls-2" x1="333.69" y1="310.77" x2="330.97" y2="316.82"/><rect class="cls-3" x="329.01" y="312.3" width="6.64" height="3" transform="translate(-90.05 488.45) rotate(-65.82)"/><line class="cls-2" x1="320.07" y1="316.82" x2="280.42" y2="305.62"/><rect class="cls-3" x="298.75" y="290.62" width="3" height="41.2" transform="translate(-80.87 515.57) rotate(-74.23)"/><line class="cls-2" x1="236.04" y1="295.33" x2="227.46" y2="293.52"/><rect class="cls-3" x="230.25" y="290.04" width="3" height="8.77" transform="translate(-104.25 460.25) rotate(-78.06)"/><line class="cls-2" x1="226.87" y1="284.65" x2="227.46" y2="293.52"/><rect class="cls-3" x="225.67" y="284.64" width="3" height="8.88" transform="matrix(1, -0.07, 0.07, 1, -18.45, 15.5)"/><line class="cls-2" x1="330.97" y1="316.82" x2="320.07" y2="316.82"/><rect class="cls-3" x="320.07" y="315.32" width="10.9" height="3"/><line class="cls-2" x1="342.77" y1="273.44" x2="340.95" y2="264.86"/><rect class="cls-3" x="340.36" y="264.77" width="3" height="8.77" transform="translate(-48.33 76.64) rotate(-11.95)"/><line class="cls-2" x1="374.25" y1="281.12" x2="342.77" y2="273.44"/><rect class="cls-3" x="357.01" y="261.08" width="3" height="32.4" transform="translate(4.18 559.88) rotate(-76.29)"/><line class="cls-2" x1="422.97" y1="289.09" x2="377.27" y2="278.65"/><rect class="cls-3" x="398.62" y="260.43" width="3" height="46.88" transform="translate(34.29 610.74) rotate(-77.14)"/><line class="cls-2" x1="421" y1="326.36" x2="416.62" y2="331.96"/><rect class="cls-3" x="415.25" y="327.66" width="7.11" height="3" transform="translate(-98.52 456.1) rotate(-51.95)"/><line class="cls-2" x1="410.99" y1="332.56" x2="366.98" y2="321.26"/><rect class="cls-3" x="387.49" y="304.19" width="3" height="45.44" transform="translate(-24.38 622.4) rotate(-75.6)"/><line class="cls-2" x1="333.69" y1="310.77" x2="366.07" y2="316.82"/><rect class="cls-3" x="348.38" y="297.32" width="3" height="32.95" transform="translate(-22.86 600.06) rotate(-79.41)"/><line class="cls-2" x1="366.98" y1="321.26" x2="366.07" y2="316.82"/><rect class="cls-3" x="365.03" y="316.78" width="3" height="4.53" transform="translate(-56.45 79.83) rotate(-11.55)"/><line class="cls-2" x1="377.27" y1="278.65" x2="374.25" y2="281.12"/><rect class="cls-3" x="373.81" y="278.38" width="3.91" height="3" transform="translate(-92.32 300.59) rotate(-39.21)"/><line class="cls-2" x1="416.62" y1="331.96" x2="410.99" y2="332.56"/><rect class="cls-3" x="410.98" y="330.76" width="5.66" height="3" transform="translate(-33.11 46.09) rotate(-6.13)"/><line class="cls-2" x1="432.34" y1="299.48" x2="426.06" y2="298.15"/><rect class="cls-3" x="427.7" y="295.61" width="3" height="6.42" transform="translate(48.33 657.2) rotate(-78.1)"/><line class="cls-2" x1="426.06" y1="291.54" x2="426.06" y2="298.15"/><rect class="cls-3" x="424.56" y="291.54" width="3" height="6.62"/><line class="cls-2" x1="422.97" y1="289.09" x2="426.06" y2="291.54"/><rect class="cls-3" x="423.02" y="288.34" width="3" height="3.94" transform="translate(-66.85 442.14) rotate(-51.54)"/><line class="cls-2" x1="421" y1="326.36" x2="424.52" y2="326.91"/><rect class="cls-3" x="421.76" y="324.85" width="2" height="3.56" transform="translate(34.24 693.34) rotate(-81.04)"/><line class="cls-2" x1="245.06" y1="279.88" x2="236.04" y2="303.11"/><rect class="cls-3" x="228.09" y="290.5" width="24.91" height="2" transform="translate(-118.29 410.1) rotate(-68.76)"/><line class="cls-2" x1="236.04" y1="275.24" x2="245.06" y2="279.88"/><rect class="cls-3" x="239.55" y="272.49" width="2" height="10.14" transform="translate(-116.36 364.27) rotate(-62.74)"/><line class="cls-2" x1="240.55" y1="255.82" x2="236.04" y2="275.24"/><rect class="cls-3" x="228.33" y="264.53" width="19.94" height="2" transform="translate(-74.31 437.48) rotate(-76.91)"/><line class="cls-2" x1="307.91" y1="271.84" x2="240.55" y2="255.82"/><rect class="cls-3" x="273.23" y="229.21" width="2" height="69.24" transform="translate(-45.89 469.57) rotate(-76.62)"/><line class="cls-2" x1="300.25" y1="287.27" x2="307.91" y2="271.84"/><rect class="cls-3" x="295.46" y="278.56" width="17.24" height="2" transform="translate(-81.63 427.35) rotate(-63.56)"/><line class="cls-2" x1="286.62" y1="289.09" x2="300.25" y2="287.27"/><rect class="cls-3" x="286.56" y="287.18" width="13.75" height="2" transform="translate(-35.43 41.2) rotate(-7.58)"/><line class="cls-2" x1="274.23" y1="313.8" x2="286.62" y2="289.09"/><rect class="cls-3" x="266.6" y="300.44" width="27.64" height="2" transform="translate(-114.75 416.93) rotate(-63.36)"/><line class="cls-2" x1="306.04" y1="336.22" x2="290.11" y2="319.04"/><rect class="cls-3" x="297.07" y="315.92" width="2" height="23.43" transform="translate(-143.27 290.15) rotate(-42.85)"/><line class="cls-2" x1="274.23" y1="313.8" x2="290.11" y2="319.04"/><rect class="cls-3" x="281.17" y="308.06" width="2" height="16.72" transform="translate(-106.81 485.06) rotate(-71.71)"/><line class="cls-2" x1="303.21" y1="363.8" x2="306.04" y2="336.22"/><rect class="cls-3" x="290.76" y="349.01" width="27.72" height="2" transform="translate(-74.76 617.15) rotate(-84.12)"/><line class="cls-2" x1="287.88" y1="374.99" x2="303.21" y2="363.8"/><rect class="cls-3" x="286.05" y="368.4" width="18.98" height="2" transform="translate(-160.99 245.4) rotate(-36.14)"/><line class="cls-2" x1="268.63" y1="385.91" x2="287.88" y2="374.99"/><rect class="cls-3" x="267.19" y="379.45" width="22.13" height="2" transform="translate(-151.42 186.67) rotate(-29.54)"/><line class="cls-2" x1="228.27" y1="395.33" x2="268.63" y2="385.91"/><rect class="cls-3" x="227.73" y="389.62" width="41.44" height="2" transform="translate(-82.22 66.63) rotate(-13.13)"/><line class="cls-2" x1="192.82" y1="395.33" x2="146.28" y2="382.42"/><rect class="cls-3" x="168.55" y="364.72" width="2" height="48.3" transform="translate(-250.49 448.31) rotate(-74.5)"/><line class="cls-2" x1="123.95" y1="376.37" x2="100.56" y2="369.24"/><rect class="cls-3" x="111.26" y="360.58" width="2" height="24.45" transform="translate(-277.08 371.56) rotate(-73.06)"/><line class="cls-2" x1="89.58" y1="359.16" x2="94.83" y2="334.44"/><rect class="cls-3" x="79.57" y="345.8" width="25.28" height="2" transform="translate(-266.17 365.19) rotate(-78.05)"/><line class="cls-2" x1="100.56" y1="369.24" x2="89.58" y2="359.16"/><rect class="cls-3" x="94.07" y="356.75" width="2" height="14.91" transform="translate(-237.53 187.97) rotate(-47.45)"/><line class="cls-2" x1="123.95" y1="313.8" x2="94.83" y2="334.44"/><rect class="cls-3" x="91.54" y="323.12" width="35.7" height="2" transform="translate(-167.31 122.98) rotate(-35.34)"/><line class="cls-2" x1="164.42" y1="301.44" x2="123.95" y2="313.8"/><rect class="cls-3" x="123.03" y="306.62" width="42.31" height="2" transform="translate(-83.57 55.53) rotate(-16.98)"/><line class="cls-2" x1="199.49" y1="298.82" x2="164.42" y2="301.44"/><rect class="cls-3" x="164.37" y="299.13" width="35.17" height="2" transform="translate(-21.92 14.43) rotate(-4.28)"/><line class="cls-2" x1="236.04" y1="303.11" x2="199.49" y2="298.82"/><rect class="cls-3" x="216.77" y="282.56" width="2" height="36.8" transform="translate(-106.54 482.13) rotate(-83.3)"/><line class="cls-3" x1="94.8" y1="468.87" x2="35.49" y2="439.75"/><rect class="cls-3" x="63.64" y="421.27" width="3" height="66.07" transform="translate(-371.35 312.5) rotate(-63.84)"/><line class="cls-3" x1="6.02" y1="407.81" x2="1.5" y2="334.12"/><rect class="cls-3" x="2.26" y="334.05" width="3" height="73.83" transform="translate(-22.7 0.93) rotate(-3.51)"/><line class="cls-3" x1="35.49" y1="439.75" x2="6.02" y2="407.81"/><rect class="cls-3" x="19.25" y="402.05" width="3" height="43.46" transform="translate(-281.94 126.46) rotate(-42.71)"/><line class="cls-3" x1="369.2" y1="447.82" x2="326.04" y2="471.33"/><rect class="cls-3" x="323.05" y="458.07" width="49.15" height="3" transform="translate(-177.51 222.33) rotate(-28.58)"/><line class="cls-3" x1="254.11" y1="487.31" x2="169.19" y2="485.01"/><rect class="cls-3" x="210.15" y="443.69" width="3" height="84.95" transform="translate(-280.07 684.56) rotate(-88.45)"/><line class="cls-3" x1="94.8" y1="468.87" x2="169.19" y2="485.01"/><rect class="cls-3" x="130.49" y="438.88" width="3" height="76.12" transform="translate(-362.09 504.8) rotate(-77.76)"/><line class="cls-3" x1="253.89" y1="487.23" x2="329.01" y2="470.4"/><rect class="cls-3" x="252.96" y="477.32" width="76.99" height="3" transform="translate(-97.67 75.34) rotate(-12.63)"/><line class="cls-3" x1="249.38" y1="429.03" x2="287.88" y2="374.99"/><rect class="cls-3" x="235.45" y="400.51" width="66.35" height="3" transform="translate(-214.66 387.6) rotate(-54.54)"/><g id="_Group_" data-name="&lt;Group&gt;"><path class="cls-4" d="M180.09,317.31a5.71,5.71,0,0,1,5,3.44,1,1,0,0,0,1.82-.91,8,8,0,0,0-5.41-4.34,5.62,5.62,0,0,1,3.66-2.22,1,1,0,0,0,.84-.85,5,5,0,0,1,5-4.12,6,6,0,0,1,2.5.84,1,1,0,0,0,1.37-.36,1,1,0,0,0,.13-.48,3.51,3.51,0,0,1,1.41-2.84,6.14,6.14,0,0,1,7.18,0,3.56,3.56,0,0,1,1.32,2.12,6.33,6.33,0,0,0-3.88,4.47,1,1,0,0,0,1.9.63.94.94,0,0,0,0-.16,4.15,4.15,0,0,1,3.25-3.25l.12,0a1,1,0,0,0,.5-.25.23.23,0,0,0,.07-.07,5.48,5.48,0,0,1,2.09-.62,5,5,0,0,1,5,4.12,1,1,0,0,0,.84.85,5.28,5.28,0,0,1,4.22,3.31,1,1,0,0,0,.94.72h1a5,5,0,0,1,5,4.12,1,1,0,0,0,.84.85,4.62,4.62,0,0,1,2.91,2.12,7.4,7.4,0,0,1,1.25,3.91.63.63,0,0,0,0,.19l-2.22.47A158.35,158.35,0,0,1,200,331.31,158.35,158.35,0,0,1,171.19,329c-.77-.15-1.49-.31-2.19-.47a.61.61,0,0,0,0-.19,7.4,7.4,0,0,1,1.25-3.91,4.62,4.62,0,0,1,2.91-2.12,1,1,0,0,0,.84-.85,5,5,0,0,1,5-4.12h1.09Z"/><path class="cls-3" d="M237.66,323.37c-1.86-.54-4.57-1-7.63-1.53a7,7,0,0,1,1.38,1.44A9.34,9.34,0,0,1,233,328a28.32,28.32,0,0,0,4.34-1.5,8.17,8.17,0,0,0,2.13-1.31c.42-.41.53-.67.53-.88v0A12,12,0,0,0,237.66,323.37ZM191,308.31a5,5,0,0,0-5,4.12,1,1,0,0,1-.84.85,5.62,5.62,0,0,0-3.66,2.22,8,8,0,0,1,5.41,4.34,1,1,0,0,1-1.82.91,5.71,5.71,0,0,0-5-3.44H179a5,5,0,0,0-5,4.12,1,1,0,0,1-.84.85,4.62,4.62,0,0,0-2.91,2.12,7.4,7.4,0,0,0-1.25,3.91.61.61,0,0,1,0,.19c.7.16,1.42.32,2.19.47A158.35,158.35,0,0,0,200,331.31,158.35,158.35,0,0,0,228.81,329l2.22-.47a.63.63,0,0,1,0-.19,7.4,7.4,0,0,0-1.25-3.91,4.62,4.62,0,0,0-2.91-2.12,1,1,0,0,1-.84-.85,5,5,0,0,0-5-4.12h-1a1,1,0,0,1-.94-.72,5.28,5.28,0,0,0-4.22-3.31,1,1,0,0,1-.84-.85,5,5,0,0,0-5-4.12,5.48,5.48,0,0,0-2.09.62.23.23,0,0,1-.07.07,1,1,0,0,1-.5.25l-.12,0a4.15,4.15,0,0,0-3.25,3.25.94.94,0,0,1,0,.16,1,1,0,0,1-1.9-.63,6.33,6.33,0,0,1,3.88-4.47,3.56,3.56,0,0,0-1.32-2.12,6.14,6.14,0,0,0-7.18,0,3.51,3.51,0,0,0-1.41,2.84,1,1,0,0,1-.13.48,1,1,0,0,1-1.37.36A6,6,0,0,0,191,308.31Zm-20.19,22.62a40.77,40.77,0,0,1-9-2.62,9.68,9.68,0,0,1-2.65-1.69l-.13-.12c.75,18.18,18.73,33.81,41,33.81s40.22-15.63,41-33.81l-.13.12a9.68,9.68,0,0,1-2.65,1.69,40.77,40.77,0,0,1-9,2.62A159.68,159.68,0,0,1,200,333.31,159.68,159.68,0,0,1,170.81,330.93ZM167,328a9.34,9.34,0,0,1,1.59-4.72,7,7,0,0,1,1.38-1.44c-3,.52-5.77,1-7.63,1.53a11.83,11.83,0,0,0-2.34.94c0,.21.11.47.53.88a8.17,8.17,0,0,0,2.13,1.31A28.32,28.32,0,0,0,167,328Zm-5.19-6.53a98.92,98.92,0,0,1,10.88-2.13,7,7,0,0,1,6.31-4h.41a7,7,0,0,1,4.81-3.72,7,7,0,0,1,6.78-5.28,5.71,5.71,0,0,1,2.34.56,5.63,5.63,0,0,1,1.82-3,8.16,8.16,0,0,1,9.68,0,5.63,5.63,0,0,1,1.82,3,5.71,5.71,0,0,1,2.34-.56,7,7,0,0,1,6.78,5.28,7,7,0,0,1,4.81,3.72H221a7,7,0,0,1,6.31,4,97.77,97.77,0,0,1,10.91,2.13,11.58,11.58,0,0,1,3.28,1.4,3.08,3.08,0,0,1,1.5,2.44c0,20-19.32,37-43,37s-43-17-43-37a3,3,0,0,1,1.5-2.44A11.93,11.93,0,0,1,161.81,321.47Z"/></g><line class="cls-5" x1="11.4" y1="185.42" x2="105.75" y2="233.22"/><line class="cls-5" x1="294.07" y1="218.69" x2="205.98" y2="322.63"/><line class="cls-5" x1="41.79" y1="0.89" x2="136.15" y2="48.69"/><line class="cls-5" x1="244.62" y1="180.89" x2="184" y2="252.41"/><line class="cls-5" x1="347.25" y1="246.18" x2="259.16" y2="350.12"/></g></g></svg>